<svg width="24" height="24" viewBox="0 0 24 24" fill="none" xmlns="http://www.w3.org/2000/svg">
<path d="M10 6.5C10 5.39455 10.8945 4.5 12 4.5C13.1055 4.5 14 5.39455 14 6.5C14 7.60545 13.1055 8.5 12 8.5C10.8945 8.5 10 7.60545 10 6.5Z" fill="#4A4A4A"/>
<path d="M10 17.5C10 16.3945 10.8945 15.5 12 15.5C13.1055 15.5 14 16.3945 14 17.5C14 18.6055 13.1055 19.5 12 19.5C10.8945 19.5 10 18.6055 10 17.5Z" fill="#4A4A4A"/>
<path d="M10 12C10 10.8945 10.8945 10 12 10C13.1055 10 14 10.8945 14 12C14 13.1055 13.1055 14 12 14C10.8945 14 10 13.1055 10 12Z" fill="#4A4A4A"/>
</svg>
