<svg width="16" height="16" viewBox="0 0 16 16" fill="none" xmlns="http://www.w3.org/2000/svg">
<path d="M13.9267 3.45333V10.9867C13.9267 12.3067 12.8534 13.38 11.5334 13.38C10.22 13.38 9.14003 12.3067 9.14003 10.9867C9.14003 9.67333 10.22 8.59999 11.5334 8.59999C12.0934 8.59999 12.5934 8.79333 13 9.11333V5.14666L6.86003 6.89333V12.2733C6.86003 13.5933 5.78003 14.6667 4.4667 14.6667C3.1467 14.6667 2.07336 13.5933 2.07336 12.2733C2.07336 10.96 3.1467 9.88666 4.4667 9.88666C5.02003 9.88666 5.52003 10.08 5.9267 10.3933V4.5C5.9267 3.52 6.52003 2.76 7.46003 2.50666L11.3134 1.45333C12.0934 1.24 12.7534 1.31333 13.22 1.67333C13.6934 2.02666 13.9267 2.62666 13.9267 3.45333Z" fill="#A5A5A5"/>
</svg>
