<svg width="24" height="24" viewBox="0 0 24 24" fill="none" xmlns="http://www.w3.org/2000/svg">
<path d="M14.281 5.95355C13.9328 5.9552 13.5872 5.89193 13.2621 5.76701C12.972 5.65537 12.7131 5.47525 12.5076 5.242C12.3021 5.00874 12.156 4.72926 12.0818 4.42737C11.9988 4.12146 11.9787 3.80189 12.0228 3.488C12.0668 3.17411 12.1741 2.87242 12.3381 2.60119L12.3632 2.5761C12.3567 2.55646 12.3556 2.54555 12.3632 2.54119C12.7259 1.94531 13.2722 1.48325 13.9199 1.22446C14.5817 0.968618 15.3077 0.930404 15.9927 1.11537C16.3537 1.21331 16.6803 1.40993 16.9359 1.68318C17.1914 1.95642 17.3657 2.29547 17.4392 2.66228C17.5702 3.02308 17.5988 3.4131 17.5218 3.78915C17.4448 4.16519 17.2652 4.51258 17.0029 4.79282C16.504 5.28468 15.8878 5.64102 15.2127 5.8281C14.9087 5.90897 14.5956 5.95112 14.281 5.95355ZM15.0949 1.91719C14.8062 1.91721 14.5198 1.96893 14.2494 2.06991C13.7943 2.2511 13.4111 2.57643 13.1585 2.9961C13.0414 3.16902 12.9624 3.36482 12.9267 3.57056C12.891 3.7763 12.8993 3.98728 12.9512 4.18955C12.9888 4.36072 13.0704 4.51914 13.1878 4.64921C13.3053 4.77929 13.4546 4.87653 13.621 4.93137C14.0597 5.09024 14.538 5.10325 14.9847 4.96846C15.5046 4.82903 15.9791 4.55642 16.3614 4.17755C16.5073 4.00495 16.6036 3.79593 16.6399 3.57284C16.6762 3.34975 16.6512 3.12098 16.5676 2.91101C16.5276 2.69884 16.4297 2.50187 16.2847 2.34188C16.1397 2.18189 15.9533 2.06511 15.7461 2.00446C15.5344 1.94336 15.3152 1.91251 15.0949 1.91282V1.91719Z" fill="#4A4A4A"/>
<path d="M5.99991 3C7.99991 3 11.1666 6.66667 12.4999 8.5C15.4999 7.5 21.7 5.9 22.5 7.5C23.3 9.1 17.5278 11.1667 14.5416 12L16 14.5C17.6667 17.3333 20.7 23 19.5 23C18.3 23 12.3333 19 9.5 17L6.5 18.5C4.83333 18.8333 1.5 19.2 1.5 18C1.5 16.8 5.49994 12.8333 7.49991 11C6.16657 8.33333 3.99991 3 5.99991 3Z" fill="#4A4A4A"/>
<path d="M16 5C14 6.2 12.8333 5.16667 12.4999 4.5C12.4999 1.7 14.8333 1.33333 16 1.5C16.8333 2.16667 18 3.8 16 5Z" fill="#4A4A4A"/>
<path d="M19.1897 23.3997C18.1236 23.187 17.1249 22.7191 16.2791 22.0361L16.254 22.0481C13.5267 20.1848 11.9995 19.1027 11.322 18.5572C10.6446 18.0117 10.2017 17.6539 9.8482 17.3877C9.29759 17.7378 8.72432 18.0508 8.1322 18.3248C7.27105 18.6809 6.37792 18.9542 5.46493 19.1408C4.77211 19.267 4.07013 19.3364 3.36602 19.3481C2.20529 19.3481 1.49838 19.0699 1.26383 18.5201C0.83838 17.8743 1.19838 16.8543 2.33511 15.4874C3.26887 14.4066 4.29055 13.405 5.38965 12.4928C5.96553 11.9613 6.57241 11.4645 7.20711 11.0048C6.69716 10.2902 6.29061 9.50724 5.99947 8.67902L5.98747 8.62993C5.63511 7.54969 5.35809 6.44631 5.15838 5.32774L5.14638 5.30265C4.90856 3.75793 5.10929 2.90593 5.77038 2.69756C5.90406 2.65703 6.04306 2.63681 6.18274 2.63756C6.9634 2.72224 7.69916 3.0448 8.29038 3.56156C9.21729 4.25045 10.0666 5.03798 10.8235 5.91029C11.4692 6.60945 12.0532 7.36317 12.5689 8.16302C13.855 7.68461 15.1669 7.27852 16.4984 6.94665C17.7523 6.60349 19.0423 6.40979 20.3417 6.36956C20.9995 6.3407 21.6552 6.46311 22.2584 6.72738L22.2944 6.73938C22.4722 6.80547 22.6298 6.91681 22.7515 7.0624C22.8731 7.20799 22.9547 7.3828 22.9882 7.56956C23.0008 7.76014 22.9662 7.95087 22.8877 8.12495C22.8091 8.29903 22.6889 8.4511 22.5377 8.56774C21.6396 9.3834 20.6107 10.0421 19.494 10.5161C18.582 10.9667 17.4802 11.4467 16.2213 11.9408C15.8547 12.075 15.5667 12.1939 15.3344 12.2888L15.1162 12.3794C16.1089 14.0474 17.0384 15.675 17.8795 17.2143C18.6993 18.6197 19.4118 20.0849 20.0111 21.5976V21.6194C20.1497 21.9881 20.1954 22.3852 20.1442 22.7757C20.0891 22.9786 19.9614 23.1541 19.7855 23.2691C19.6096 23.3841 19.3976 23.4306 19.1897 23.3997ZM9.87111 16.3601C9.93771 16.36 10.0026 16.381 10.0566 16.4201L10.0926 16.4452C10.1177 16.4452 10.1297 16.4583 10.1417 16.4812C10.4231 16.6928 10.7635 16.9612 11.1573 17.2732C11.3755 17.4499 11.6209 17.6397 11.8817 17.8448C12.5842 18.4001 14.1726 19.5194 16.7526 21.2659C17.4931 21.8358 18.3365 22.2577 19.2366 22.5085C19.2631 22.3016 19.2338 22.0914 19.1515 21.8997V21.8757C18.5722 20.4115 17.8716 18.9982 17.0569 17.6507C16.1766 16.0437 15.2144 14.3779 14.1955 12.7067C13.4155 12.9607 12.6015 13.0946 11.7813 13.1037C11.0356 13.1073 10.2958 12.9723 9.59947 12.7056C8.93716 12.4793 8.33087 12.1141 7.82129 11.6343C7.23111 12.0957 6.57765 12.6499 5.95911 13.1801C4.91058 14.0623 3.93134 15.0236 3.03002 16.0557C2.25765 17.0005 1.94674 17.6659 2.08093 18.0892C2.23583 18.3216 2.66784 18.4394 3.36602 18.4394C4.02451 18.4257 4.68098 18.3615 5.32965 18.2474C6.16617 18.0844 6.98257 17.8313 7.76456 17.4925C8.40024 17.2454 8.99552 16.905 9.53074 16.4823C9.60215 16.4198 9.69153 16.3816 9.78602 16.3732C9.81368 16.3651 9.84229 16.3607 9.87111 16.3601ZM12.1511 9.2692C11.6624 9.48738 11.0602 9.7732 10.2758 10.1703C9.5122 10.5816 8.96674 10.8914 8.59584 11.1194C8.97998 11.4459 9.42174 11.6979 9.89838 11.8623C10.4969 12.0849 11.1307 12.1976 11.7693 12.195C12.4309 12.188 13.0882 12.0881 13.722 11.8983L12.1511 9.26811V9.2692ZM20.3329 7.26629C19.1074 7.30921 17.8907 7.49222 16.7067 7.81175C15.5733 8.09756 14.3406 8.47393 13.0413 8.93211L14.5991 11.6103C14.7377 11.5601 14.9166 11.4881 15.1446 11.3921C15.3726 11.2961 15.6038 11.2067 15.8907 11.0954C17.07 10.6317 18.1467 10.1561 19.0926 9.68375H19.1057C20.1171 9.24449 21.0602 8.66217 21.906 7.95465C21.9755 7.86716 22.0365 7.77329 22.0882 7.67429C22.0317 7.62052 21.9708 7.57162 21.906 7.52811C21.4039 7.33731 20.8685 7.24975 20.3318 7.27065L20.3329 7.26629ZM6.31365 3.58884C6.27417 3.58864 6.23474 3.59192 6.19583 3.59865C5.96347 3.70774 5.91438 4.24011 6.04965 5.18156C6.23753 6.26139 6.51038 7.32469 6.86565 8.36156C7.12034 9.10755 7.48114 9.81297 7.93693 10.4561C8.31329 10.2096 8.92856 9.8692 9.87329 9.38484C10.5987 9.01611 11.2369 8.69538 11.6995 8.51211C11.2202 7.80943 10.7042 7.13249 10.1537 6.48411V6.5092C9.43256 5.68666 8.63316 4.93621 7.76674 4.26847C7.35616 3.90943 6.85241 3.67382 6.31365 3.58884Z" fill="#4A4A4A"/>
</svg>
