<svg width="24" height="24" viewBox="0 0 24 24" fill="none" xmlns="http://www.w3.org/2000/svg">
<path fill-rule="evenodd" clip-rule="evenodd" d="M12 2C6.49 2 2 6.49 2 12C2 17.51 6.49 22 12 22C17.51 22 22 17.51 22 12C22 6.49 17.51 2 12 2ZM11.25 7.75C11.25 7.34 11.59 7 12 7C12.41 7 12.75 7.34 12.75 7.75V13C12.75 13.41 12.41 13.75 12 13.75C11.59 13.75 11.25 13.41 11.25 13V7.75ZM12.71 16.96C12.8 16.86 12.87 16.75 12.92 16.63C12.97 16.51 13 16.38 13 16.25C13 16.12 12.97 15.99 12.92 15.87C12.87 15.74 12.8 15.64 12.71 15.54C12.43 15.26 11.99 15.17 11.62 15.33C11.49 15.38 11.39 15.45 11.29 15.54C11.1 15.73 11 15.99 11 16.25C11 16.38 11.02 16.51 11.07 16.63C11.13 16.75 11.2 16.86 11.29 16.96C11.39 17.05 11.49 17.12 11.62 17.17C11.74 17.22 11.87 17.25 12 17.25C12.27 17.25 12.52 17.15 12.71 16.96Z" fill="#4A4A4A"/>
</svg>
