<svg width="180" height="143" viewBox="0 0 180 143" fill="none" xmlns="http://www.w3.org/2000/svg">
<g clip-path="url(#clip0_5_82)">
<path d="M156.994 65.0129H154.327V69.5818H156.994V65.0129Z" fill="black"/>
<path d="M156.994 77.8256H154.327V102.587H156.994V77.8256Z" fill="black"/>
<path d="M170.796 77.3295C168.688 77.2643 166.628 77.958 164.995 79.2827C164.251 79.8441 163.65 80.5706 163.238 81.4041C162.827 82.2376 162.618 83.1551 162.628 84.0831C162.628 86.831 164.661 89.0498 168.659 90.6383L171.733 91.93C174.4 92.9893 175.733 94.3803 175.733 96.1682C175.744 96.7555 175.62 97.3377 175.372 97.8709C175.124 98.4041 174.757 98.8745 174.299 99.2469C173.193 100.116 171.809 100.562 170.399 100.505C167.615 100.446 164.889 99.7072 162.461 98.3538V100.87C164.751 102.295 167.394 103.063 170.096 103.088C172.156 103.12 174.17 102.481 175.83 101.267C176.622 100.704 177.265 99.9575 177.7 99.0919C178.136 98.2263 178.353 97.268 178.33 96.3005C178.395 94.7852 177.87 93.3034 176.864 92.1625C175.534 90.9129 173.939 89.9741 172.197 89.4145L169.896 88.4535C168.638 87.9787 167.458 87.3204 166.395 86.5003C166.017 86.1905 165.713 85.8009 165.506 85.3599C165.298 84.9189 165.192 84.4376 165.195 83.9508C165.207 83.3875 165.345 82.8339 165.598 82.33C165.852 81.8261 166.216 81.3846 166.662 81.0375C167.762 80.1544 169.151 79.7064 170.563 79.7797C172.43 79.7797 174.731 80.6737 177.531 82.5277V79.5473C174.897 78.058 172.663 77.3295 170.796 77.3295Z" fill="black"/>
<path d="M146.993 96.1681C146.998 96.7614 146.866 97.3479 146.605 97.8819C146.345 98.4159 145.964 98.883 145.492 99.2468C144.4 100.121 143.023 100.569 141.622 100.505C138.84 100.445 136.116 99.7057 133.69 98.3529V100.869C135.978 102.299 138.622 103.067 141.325 103.087C143.386 103.126 145.402 102.485 147.059 101.266C147.851 100.703 148.494 99.9566 148.929 99.091C149.365 98.2254 149.582 97.2671 149.559 96.2996C149.629 94.7773 149.09 93.2894 148.059 92.1607C146.738 90.9149 145.155 89.9762 143.425 89.4127L141.125 88.4535C139.867 87.9787 138.687 87.3204 137.624 86.5003C137.246 86.1905 136.942 85.8009 136.735 85.3599C136.527 84.9189 136.421 84.4376 136.424 83.9508C136.436 83.3875 136.574 82.8339 136.827 82.33C137.081 81.8261 137.445 81.3846 137.891 81.0375C139.001 80.1495 140.402 79.7014 141.825 79.7797C143.659 79.7797 145.993 80.6736 148.756 82.5277V79.5473C146.731 78.2431 144.401 77.4782 141.992 77.3259C139.895 77.2673 137.847 77.9621 136.224 79.2827C135.483 79.8468 134.883 80.574 134.473 81.4071C134.062 82.2401 133.851 83.1564 133.857 84.084C133.857 86.8319 135.89 89.0507 139.888 90.6392L142.962 91.93C145.663 92.9893 146.993 94.3803 146.993 96.1681Z" fill="black"/>
<path d="M155.466 142C154.159 141.997 152.866 141.734 151.663 141.228C150.46 140.721 149.37 139.981 148.46 139.05C147.506 138.079 146.759 136.929 146.26 135.666C145.761 134.404 145.522 133.056 145.556 131.7C145.515 130.37 145.745 129.045 146.232 127.805C146.719 126.564 147.453 125.434 148.389 124.483C149.33 123.522 150.463 122.767 151.714 122.265C152.965 121.763 154.308 121.526 155.657 121.569C157.716 121.66 159.721 122.251 161.496 123.291V111.67H163.63V141.566H161.496V139.912C159.872 141.247 157.835 141.983 155.727 141.997C155.637 141.999 155.553 142 155.466 142ZM149.959 126C148.537 127.519 147.772 129.531 147.826 131.604C147.78 132.72 147.971 133.832 148.384 134.869C148.797 135.907 149.425 136.847 150.227 137.63C151.026 138.384 151.968 138.975 152.998 139.367C154.028 139.759 155.125 139.945 156.228 139.914C158.142 139.834 159.984 139.163 161.496 137.994V125.674C159.852 124.426 157.862 123.708 155.795 123.618C154.707 123.575 153.622 123.765 152.615 124.177C151.608 124.588 150.702 125.211 149.96 126.002L149.959 126Z" fill="#989898"/>
<path d="M179.365 123.318C177.761 122.301 175.928 121.697 174.03 121.56C172.369 121.517 170.747 122.07 169.463 123.118C168.871 123.564 168.392 124.139 168.062 124.799C167.732 125.46 167.561 126.187 167.563 126.924C167.563 129.109 169.163 130.863 172.363 132.122L174.764 133.115C176.864 133.976 177.965 135.068 177.965 136.492C177.968 136.957 177.865 137.416 177.662 137.834C177.459 138.253 177.162 138.619 176.795 138.906C175.917 139.6 174.815 139.953 173.695 139.899C171.498 139.859 169.346 139.281 167.429 138.216V140.235C169.252 141.362 171.351 141.969 173.497 141.99C175.124 142.014 176.711 141.489 177.998 140.5C178.632 140.065 179.147 139.48 179.497 138.798C179.846 138.116 180.018 137.358 179.998 136.593C180.055 135.391 179.635 134.214 178.828 133.315C177.772 132.341 176.523 131.597 175.161 131.131L173.331 130.403C172.317 130.027 171.371 129.49 170.53 128.814C170.231 128.576 169.991 128.273 169.829 127.929C169.668 127.584 169.588 127.207 169.596 126.827C169.602 126.379 169.71 125.938 169.911 125.537C170.113 125.135 170.403 124.785 170.76 124.51C171.624 123.785 172.735 123.418 173.864 123.483C175.331 123.483 177.165 124.245 179.365 125.701V123.318Z" fill="#989898"/>
<path d="M81.314 77.8256H78.6135V102.587H81.314V85.2425C83.5473 81.6999 86.3153 79.9451 89.7152 79.9451C94.2826 79.9451 96.5501 82.693 96.5501 88.2586V102.591H99.2505V87.5006C99.2505 84.1233 98.3837 81.6069 96.6167 79.8852C95.7258 79.0304 94.6699 78.3635 93.5126 77.9249C92.3552 77.4863 91.1204 77.2849 89.8826 77.333C88.1533 77.2904 86.4493 77.7519 84.9812 78.6605C83.5009 79.6843 82.2518 81.0035 81.314 82.5339V77.8256Z" fill="black"/>
<path d="M48.5419 77.8256H45.7748L37.0433 95.0418L28.0048 77.8256H25.1711L35.7732 97.6905L27.0048 115.172H29.7385L48.5419 77.8256Z" fill="black"/>
<path d="M53.6098 115.172H50.9426V77.8256H53.6098V79.0511C55.8987 77.9199 58.42 77.3294 60.9767 77.3258H61.2467C61.3367 77.3258 61.434 77.3258 61.5276 77.3258C63.1213 77.3218 64.7003 77.63 66.174 78.2327C67.6477 78.8353 68.9872 79.7207 70.116 80.8381C71.3245 82.0438 72.2705 83.4832 72.8955 85.0671C73.5205 86.651 73.811 88.3455 73.749 90.0456C73.8224 91.8027 73.5252 93.5557 72.8764 95.1921C72.2277 96.8285 71.2418 98.3122 69.9819 99.5481C67.6624 101.825 64.5305 103.098 61.2692 103.091H61.1468C58.5407 103.053 55.9724 102.467 53.6116 101.37V115.171L53.6098 115.172ZM60.3997 79.9442C58.0312 79.9464 55.6995 80.5266 53.6098 81.6337V98.7498C55.7797 99.885 58.192 100.487 60.6445 100.505C63.3546 100.596 65.991 99.62 67.9799 97.7897C69.954 95.9294 70.9135 93.4497 70.9135 90.2074C70.924 88.8771 70.6703 87.5579 70.1669 86.3251C69.6636 85.0923 68.9204 83.9702 67.9799 83.0229C67.0199 82.0026 65.85 81.1996 64.5495 80.6685C63.2491 80.1374 61.8488 79.8907 60.4438 79.9451L60.3997 79.9442Z" fill="black"/>
<path d="M100.051 111.67H97.9507V141.566H100.051V111.67Z" fill="#989898"/>
<path d="M116.987 103.087C115.29 103.124 113.604 102.818 112.029 102.188C110.455 101.558 109.026 100.617 107.829 99.4222C106.632 98.2273 105.691 96.8033 105.065 95.2367C104.439 93.6701 104.139 91.9934 104.185 90.3085C104.168 88.568 104.479 86.8397 105.102 85.213C105.722 83.6572 106.646 82.2382 107.819 81.0375C109.002 79.8178 110.429 78.8577 112.008 78.2191C113.587 77.5804 115.283 77.2774 116.987 77.3295C118.67 77.2857 120.344 77.5865 121.905 78.2131C123.465 78.8396 124.88 79.7785 126.059 80.9713C127.289 82.1519 128.257 83.5752 128.899 85.1496C129.542 86.7241 129.845 88.4148 129.789 90.1127C129.831 91.8148 129.531 93.5081 128.908 95.094C128.284 96.6799 127.348 98.1265 126.155 99.3497C124.985 100.587 123.561 101.561 121.979 102.205C120.398 102.85 118.696 103.151 116.987 103.087ZM117.055 100.506C117.129 100.506 117.205 100.506 117.296 100.506C118.578 100.503 119.847 100.244 121.025 99.7425C122.204 99.2412 123.269 98.5086 124.155 97.5886C126.002 95.6404 126.997 93.0455 126.922 90.371C126.971 88.9919 126.742 87.6171 126.25 86.3267C125.758 85.0362 125.012 83.856 124.055 82.8549C123.168 81.9356 122.103 81.2036 120.924 80.7027C119.745 80.2018 118.477 79.9423 117.194 79.9397H116.986H116.791C115.513 79.9437 114.248 80.1977 113.069 80.6871C111.89 81.1766 110.82 81.8919 109.919 82.7923C108.96 83.7713 108.211 84.934 107.718 86.2095C107.225 87.485 106.999 88.8467 107.052 90.2119C106.999 91.5385 107.215 92.862 107.688 94.104C108.16 95.3459 108.879 96.4809 109.802 97.4416C110.725 98.4022 111.832 99.1688 113.059 99.6959C114.286 100.223 115.607 100.5 116.944 100.51L117.055 100.506Z" fill="black"/>
<path d="M4.3344 64.7814H1.66724V102.595H4.3344V85.2426C5.37098 83.5601 6.74376 82.1065 8.36801 80.9714C9.6968 80.2568 11.1918 79.9029 12.7023 79.9451C17.3033 79.9451 19.6038 82.7926 19.6038 88.4875V102.595H22.2709V86.9312C22.3407 85.6549 22.1492 84.3777 21.708 83.177C21.2667 81.9762 20.5849 80.8768 19.7037 79.9451C18.8057 79.0672 17.7357 78.3821 16.5599 77.9321C15.3841 77.4821 14.1277 77.277 12.8688 77.3295C11.2084 77.2929 9.57376 77.7417 8.16817 78.6203C6.63399 79.6505 5.32913 80.9826 4.3344 82.5339V64.7814Z" fill="black"/>
<path d="M10.1349 141.996C8.7887 142.032 7.44988 141.788 6.20413 141.28C4.95837 140.772 3.83311 140.011 2.90034 139.046C1.04684 137.071 0.0107469 134.474 -0.0015974 131.774C-0.0139417 129.074 0.998372 126.468 2.83373 124.475C3.76997 123.508 4.90147 122.749 6.15401 122.247C7.40655 121.745 8.75183 121.512 10.1016 121.562C12.1599 121.647 14.1643 122.242 15.9328 123.291V111.67H18.0329V141.566H15.9328V139.912C14.301 141.251 12.2521 141.988 10.1349 141.996ZM10.2024 123.615C9.11811 123.567 8.03643 123.757 7.03391 124.17C6.03138 124.583 5.13252 125.21 4.4009 126.006C2.9804 127.524 2.21436 129.533 2.26663 131.604C2.22122 132.72 2.41136 133.832 2.82483 134.869C3.2383 135.907 3.86593 136.847 4.66735 137.63C6.22792 139.101 8.2987 139.921 10.4509 139.918H10.5121H10.6354C12.5624 139.85 14.4177 139.175 15.9328 137.991V125.674C14.283 124.414 12.2788 123.695 10.1988 123.618L10.2024 123.615Z" fill="#989898"/>
<path d="M31.7827 141.993C30.4906 141.993 29.2114 141.738 28.0192 141.243C26.8271 140.748 25.7458 140.023 24.838 139.11C23.867 138.171 23.1044 137.041 22.599 135.793C22.0937 134.544 21.8568 133.204 21.9035 131.859C21.8656 130.506 22.0996 129.16 22.5919 127.898C23.0842 126.636 23.8248 125.484 24.7705 124.509C25.6996 123.54 26.8242 122.776 28.0708 122.268C29.3174 121.759 30.6581 121.518 32.0051 121.559C32.087 121.559 32.1698 121.559 32.2517 121.559C33.5453 121.559 34.8261 121.814 36.0199 122.309C37.2137 122.804 38.2967 123.529 39.2063 124.442C40.1821 125.379 40.9503 126.508 41.4618 127.756C41.9733 129.005 42.2168 130.346 42.1768 131.693C42.2083 133.048 41.968 134.396 41.4701 135.658C40.9722 136.92 40.2265 138.071 39.2765 139.044C38.3424 140.016 37.2122 140.781 35.9597 141.289C34.7073 141.798 33.3609 142.038 32.0087 141.994L31.7827 141.993ZM32.1059 139.904C32.1752 139.904 32.2508 139.904 32.3363 139.904C33.3404 139.902 34.3338 139.698 35.2565 139.305C36.1793 138.912 37.0124 138.337 37.7058 137.616C38.4309 136.858 38.9985 135.966 39.3761 134.99C39.7538 134.014 39.934 132.974 39.9066 131.929C39.9458 130.833 39.7623 129.741 39.3671 128.717C38.972 127.693 38.3733 126.758 37.6067 125.969C36.9085 125.228 36.0646 124.636 35.1271 124.231C34.1897 123.826 33.1786 123.617 32.1563 123.615H32.0051H31.9546C30.9261 123.618 29.9082 123.824 28.9609 124.222C28.0135 124.619 27.1557 125.201 26.4376 125.932C25.6815 126.7 25.0905 127.613 24.7007 128.615C24.3109 129.617 24.1304 130.687 24.1701 131.76C24.1332 132.841 24.3181 133.918 24.7137 134.925C25.1092 135.933 25.7071 136.85 26.4709 137.621C27.1891 138.342 28.044 138.916 28.9864 139.308C29.9288 139.701 30.94 139.904 31.9618 139.906L32.1059 139.904Z" fill="#989898"/>
<path d="M132.569 141.99C131.186 141.991 129.852 141.484 128.822 140.566C128.309 140.123 127.899 139.572 127.623 138.955C127.346 138.337 127.209 137.666 127.222 136.99C127.222 134.791 128.29 133.102 130.49 131.825C133.109 130.459 136.034 129.776 138.992 129.839V127.39C139.034 126.828 138.953 126.264 138.755 125.736C138.557 125.209 138.246 124.73 137.844 124.333C136.857 123.586 135.628 123.225 134.391 123.317C132.164 123.45 130.039 124.286 128.323 125.701V123.618C130.246 122.404 132.449 121.696 134.724 121.562C136.392 121.453 138.045 121.934 139.391 122.919C139.972 123.365 140.433 123.945 140.735 124.609C141.037 125.273 141.171 126 141.125 126.727V138.844C141.125 139.56 141.255 139.904 141.526 139.904C142.006 139.904 143.021 139.32 144.46 138.216V139.971L144.208 140.145C143.602 140.582 142.973 140.987 142.326 141.361C141.809 141.732 141.196 141.949 140.559 141.987H140.391C139.542 141.987 139.057 141.151 138.992 139.573C137.233 141.117 134.97 141.975 132.623 141.99H132.569ZM138.125 131.561C135.953 131.485 133.8 131.989 131.89 133.018C131.138 133.375 130.5 133.932 130.047 134.628C129.594 135.323 129.343 136.129 129.323 136.957C129.308 137.426 129.413 137.89 129.628 138.307C129.843 138.724 130.161 139.08 130.553 139.341C131.386 139.926 132.381 140.238 133.401 140.235H133.554C135.622 140.114 137.565 139.214 138.988 137.719V131.594C138.718 131.594 138.512 131.581 138.358 131.571C138.266 131.566 138.189 131.561 138.125 131.561Z" fill="#989898"/>
<path d="M114.648 141.993C114.558 141.993 114.474 141.993 114.387 141.993H114.158C112.832 141.992 111.519 141.728 110.298 141.214C109.077 140.701 107.972 139.95 107.048 139.005C106.125 138.06 105.401 136.941 104.921 135.714C104.44 134.486 104.213 133.176 104.252 131.859C104.207 130.506 104.438 129.157 104.931 127.894C105.424 126.631 106.168 125.48 107.119 124.509C108.052 123.537 109.182 122.771 110.435 122.262C111.688 121.754 113.034 121.514 114.387 121.559H114.611C115.903 121.559 117.182 121.814 118.374 122.309C119.566 122.804 120.647 123.529 121.555 124.442C122.512 125.351 123.263 126.451 123.759 127.67C124.258 128.953 124.506 130.318 124.488 131.693C124.56 134.419 123.541 137.062 121.654 139.043C120.744 139.974 119.654 140.714 118.451 141.221C117.248 141.727 115.955 141.99 114.648 141.993ZM114.454 139.904C114.523 139.904 114.592 139.904 114.66 139.904C115.668 139.901 116.665 139.698 117.592 139.304C118.518 138.911 119.356 138.337 120.054 137.615C120.779 136.857 121.347 135.965 121.724 134.99C122.102 134.014 122.282 132.974 122.255 131.929C122.292 130.833 122.108 129.741 121.712 128.718C121.317 127.694 120.72 126.76 119.955 125.969C119.259 125.228 118.416 124.636 117.48 124.231C116.544 123.827 115.534 123.617 114.514 123.615H114.29C113.264 123.618 112.248 123.824 111.303 124.222C110.357 124.619 109.502 125.201 108.786 125.932C108.024 126.697 107.427 127.608 107.032 128.61C106.636 129.612 106.45 130.684 106.485 131.759C106.457 132.842 106.649 133.919 107.05 134.926C107.451 135.933 108.053 136.849 108.819 137.62C109.542 138.342 110.401 138.915 111.347 139.308C112.293 139.7 113.308 139.903 114.333 139.905L114.454 139.904Z" fill="#989898"/>
<path d="M90.8827 130.237V141.56H92.9828V129.606C92.9828 126.958 92.2825 124.938 90.8827 123.617C90.1738 122.942 89.3376 122.413 88.4221 122.061C87.5067 121.708 86.5301 121.538 85.5484 121.561C84.1932 121.533 82.8597 121.902 81.7146 122.622C80.5195 123.421 79.5173 124.472 78.7801 125.701V121.96H76.6467V141.56H78.7801V127.819C80.5471 125.039 82.748 123.617 85.4485 123.617C89.0491 123.617 90.8827 125.834 90.8827 130.237Z" fill="#989898"/>
<path d="M74.9129 121.96H72.7795L65.7781 138.018L59.6768 121.96H58.5066L52.3091 138.018L45.3742 121.96H43.2742L51.9427 141.99H52.9761L59.044 126.033L65.211 141.99H66.2777L74.9129 121.96Z" fill="#989898"/>
<path d="M96.9831 1.1451C94.9821 1.90563 93.3002 3.31783 92.2123 5.15081C91.6981 5.95982 91.3586 6.86596 91.2151 7.81194C91.0717 8.75792 91.1274 9.72318 91.3787 10.6467C91.5944 11.5194 92.0194 12.3273 92.6173 13.0017C93.2152 13.6762 93.9685 14.1971 94.8128 14.5201C96.7068 15.2252 98.7833 15.2833 100.714 14.6855C102.79 14.1303 104.678 13.0326 106.182 11.5067L106.248 11.4736C106.998 10.6621 107.509 9.66201 107.727 8.5821C107.944 7.50219 107.859 6.38375 107.482 5.34836C107.253 4.26879 106.727 3.27344 105.962 2.473C105.198 1.67256 104.224 1.09839 103.151 0.814348C101.113 0.25964 98.949 0.375687 96.9831 1.1451Z" fill="#6FB344"/>
<path d="M95.2169 18.2299L94.8136 17.5416C93.6137 18.0717 91.213 19.2302 87.6457 21.0511C85.2333 22.1992 82.906 23.5157 80.6812 24.9907C81.4293 25.8129 82.281 26.5361 83.2151 27.1424C84.2947 27.8543 85.4455 28.4535 86.6492 28.9302C90.8412 30.3918 95.4036 30.4267 99.6178 29.0295C100.185 28.8641 100.788 28.6987 101.385 28.4663L95.2169 18.2299Z" fill="#6FB344"/>
<path d="M104.952 27.6654C108.476 26.3711 111.927 24.8901 115.291 23.2288C124.492 18.7591 127.392 15.6804 123.892 14.0579C120.725 12.5678 115.057 12.8663 106.789 14.8857C102.873 15.7867 99.0092 16.9032 95.217 18.2299L101.385 28.4672C100.785 28.6987 100.185 28.8641 99.6179 29.0304L99.6512 29.1296H99.7178L99.951 29.5936L100.018 29.5605C100.518 29.4201 102.148 28.798 104.952 27.6654Z" fill="#C3312A"/>
<path d="M99.7177 29.1296H99.6511C95.4825 30.5269 90.9619 30.492 86.8158 29.0304C85.5908 28.5626 84.4265 27.9513 83.3475 27.2094C82.0091 26.5805 80.7812 25.742 79.7108 24.7261C79.1195 25.0768 78.5515 25.4649 78.0104 25.8882L77.6135 25.3885C76.0832 26.5506 74.4458 27.9049 72.6455 29.4281C69.4311 32.117 66.4326 35.0505 63.6772 38.2021C60.7769 41.6115 59.7768 44.0949 60.677 45.7504C61.6105 47.5383 65.311 47.9352 71.7786 46.9125C74.4096 46.3645 76.9786 45.5559 79.4471 44.4989C81.2133 43.8007 82.8917 42.9007 84.4483 41.8171C84.7599 41.7379 85.0851 41.7264 85.4016 41.7835C85.718 41.8406 86.0183 41.9649 86.282 42.1479C87.4522 43.108 88.8159 44.1673 90.3831 45.3929C92.5831 47.1098 97.4727 50.5178 105.052 55.6167C112.686 60.7121 115.721 60.848 114.22 55.9144C113.52 53.6295 111.42 49.3887 107.919 43.1312C105.489 38.7277 102.884 34.2581 100.151 29.6561L99.9842 29.6892L99.9509 29.59L99.7177 29.1296Z" fill="#21A0DB"/>
<path d="M92.8144 18.2031C91.0465 15.2759 88.9675 12.5454 86.6133 10.0585C84.2517 7.25148 81.5671 4.7289 78.6145 2.54231C75.7466 0.423695 73.5799 -0.37101 72.1459 0.159091C70.5463 0.589072 70.0459 2.80781 70.6463 6.78044C71.3409 10.3995 72.2651 13.9713 73.4133 17.4745C74.2992 20.3513 75.7242 23.0361 77.6135 25.3876C77.78 25.553 77.9465 25.7514 78.2436 26.0831C79.3769 25.3215 80.4436 24.659 81.4779 24.0637C82.5121 23.4683 84.3115 22.4412 86.9454 21.0181C88.8251 19.9296 90.7874 18.9885 92.8144 18.2031Z" fill="#F8991D"/>
<path d="M97.3079 14.4736C96.354 14.4775 95.4077 14.305 94.5174 13.965C93.7221 13.6626 93.0123 13.1733 92.4489 12.5391C91.8855 11.9048 91.4852 11.1445 91.2823 10.3231C91.0544 9.49141 90.9989 8.62243 91.1193 7.76884C91.2397 6.91524 91.5334 6.09482 91.9826 5.3573L92.0456 5.29115C92.0285 5.23841 92.024 5.20712 92.033 5.1964C92.0344 5.19575 92.0359 5.19542 92.0375 5.19542C92.039 5.19542 92.0406 5.19575 92.042 5.1964C93.0349 3.57375 94.5349 2.31803 96.3132 1.62067C98.1239 0.926299 100.11 0.822044 101.984 1.32299C103.98 1.84505 105.278 3.21992 105.951 5.52447C106.309 6.5062 106.387 7.56717 106.175 8.58988C105.963 9.61259 105.47 10.5571 104.751 11.3189C103.386 12.6558 101.698 13.6239 99.85 14.1312C99.0205 14.3511 98.1664 14.4661 97.3079 14.4736ZM99.5331 3.48541C98.742 3.48482 97.9572 3.62532 97.2161 3.9002C95.9659 4.39038 94.9122 5.2744 94.2168 6.41661C93.8967 6.88679 93.6806 7.41904 93.5828 7.97824C93.4851 8.53744 93.5079 9.11087 93.6497 9.66069C93.7531 10.1262 93.9764 10.5572 94.2978 10.9113C94.6193 11.2654 95.0277 11.5306 95.4833 11.681C96.6845 12.1132 97.9943 12.148 99.2171 11.7802C100.641 11.4022 101.94 10.66 102.985 9.62761C103.385 9.15863 103.649 8.59042 103.749 7.98385C103.849 7.37727 103.78 6.75518 103.551 6.18419C103.44 5.61222 103.173 5.08153 102.779 4.64973C102.385 4.21793 101.879 3.90151 101.317 3.73482V3.72856C100.736 3.56733 100.136 3.48552 99.5331 3.48541Z" fill="black"/>
<path d="M111.886 58.6954C110.328 58.6954 107.721 57.4824 103.918 54.9874L103.85 55.0205C96.3737 49.9528 92.2105 47.0225 90.3481 45.518C88.5163 44.0332 87.2722 43.0535 86.3136 42.3401C84.806 43.2934 83.2356 44.1448 81.613 44.8887C79.2553 45.8565 76.8102 46.5994 74.3109 47.1074C72.4145 47.4499 70.4932 47.6379 68.5661 47.6697C65.3876 47.6697 63.4505 46.9125 62.8051 45.4179C62.5125 44.9069 62.3467 44.334 62.3213 43.7468C62.2959 43.1595 62.4118 42.5746 62.6592 42.0406C63.4027 40.2568 64.4462 38.6115 65.745 37.175C68.3038 34.2348 71.1039 31.5106 74.1164 29.0304C75.6888 27.5887 77.3449 26.2398 79.0763 24.9907C77.6816 23.0477 76.5703 20.9188 75.7754 18.667L75.7421 18.5338C74.7804 15.5967 74.0246 12.5969 73.48 9.55608L73.4458 9.48903C72.7797 5.28756 73.336 2.9696 75.1462 2.40463C75.5125 2.29472 75.8933 2.23988 76.2759 2.24194C77.8449 2.24194 79.7334 3.06435 82.0468 4.75567C84.5833 6.63026 86.9073 8.77275 88.978 11.1455C90.7436 13.0465 92.3399 15.0959 93.7489 17.2707C97.2733 15.9692 100.869 14.8649 104.517 13.9632C107.951 13.0306 111.483 12.5043 115.041 12.3952C116.841 12.3169 118.636 12.6493 120.286 13.3669L120.387 13.4C120.873 13.5798 121.304 13.8818 121.637 14.2763C121.97 14.6708 122.195 15.1445 122.288 15.6509C122.456 16.4554 122.053 17.3413 121.054 18.3667C119.776 19.8023 116.971 21.5848 112.72 23.6641C110.208 24.895 107.191 26.1984 103.751 27.5375C102.741 27.9049 101.945 28.2294 101.307 28.4904C101.084 28.5798 100.892 28.6594 100.718 28.7291C103.403 33.2068 105.949 37.6291 108.286 41.8699C111.617 47.9683 113.47 51.7559 114.12 53.7887V53.8557C114.501 54.8581 114.627 55.9382 114.488 57.0006C114.16 58.143 113.309 58.6954 111.886 58.6954ZM86.3757 39.5555C86.5576 39.5551 86.7349 39.6118 86.8825 39.7173L86.9824 39.7843C87.0526 39.7843 87.0841 39.821 87.1165 39.8836C87.8871 40.4575 88.8196 41.1896 89.8989 42.0379C90.4957 42.5064 91.169 43.0356 91.8838 43.5916C93.8074 45.1068 98.1696 48.1506 105.22 52.8956C108.37 54.9713 110.659 56.1084 112.021 56.2729C112.094 55.7103 112.014 55.1385 111.788 54.6173V54.5512C111.117 52.4522 109.241 48.6942 106.053 43.0624C103.649 38.7018 101.012 34.1785 98.2218 29.6204C96.0869 30.3109 93.8588 30.6753 91.6137 30.7011C89.5747 30.7101 87.5517 30.3434 85.6475 29.6195C83.8341 29.0049 82.1744 28.0115 80.7803 26.7061C79.16 27.9684 77.3687 29.4729 75.68 30.9076C72.8033 33.3044 70.1168 35.9176 67.6443 38.7241C65.5307 41.2915 64.6792 43.0999 65.0447 44.2567C65.4686 44.8887 66.6523 45.2096 68.5634 45.2096C70.3685 45.1728 72.1681 44.9983 73.9463 44.6876C76.2368 44.2423 78.4722 43.553 80.6138 42.6315C82.3538 41.9595 83.983 41.0334 85.4476 39.8836C85.6433 39.7124 85.889 39.608 86.1488 39.5859C86.2228 39.5659 86.2991 39.5557 86.3757 39.5555ZM92.6165 20.2832C91.1762 20.9385 89.5559 21.6885 87.4856 22.7326C85.4611 23.8196 83.9129 24.6885 82.8849 25.3152C83.9369 26.2034 85.1468 26.8885 86.4522 27.3355C88.091 27.9413 89.8264 28.2483 91.575 28.2419C93.3862 28.2237 95.1858 27.9529 96.921 27.4374L92.6201 20.2859L92.6165 20.2832ZM115.011 14.8392C111.657 14.9521 108.326 15.4458 105.085 16.3106C101.966 17.0928 98.5899 18.1173 95.0505 19.3562L99.3182 26.64C99.6944 26.5041 100.179 26.3101 100.792 26.0634C101.385 25.8256 102.052 25.5557 102.851 25.2499C106.083 23.9859 109.034 22.6933 111.62 21.406H111.653C115.465 19.5529 118.044 17.9707 119.321 16.7048C119.512 16.4671 119.679 16.2121 119.821 15.9432C119.666 15.7967 119.499 15.6636 119.321 15.5454C117.947 15.0244 116.481 14.7839 115.011 14.8383V14.8392ZM76.6351 4.82719C76.5274 4.82674 76.4198 4.83571 76.3137 4.854C75.6836 5.15258 75.545 6.60074 75.9132 9.15828C76.4275 12.0947 77.1743 14.9863 78.1464 17.8062C78.8442 19.8342 79.8322 21.752 81.0801 23.5005C82.0936 22.8399 83.7805 21.9147 86.382 20.5872C88.3713 19.5833 90.1203 18.7099 91.3824 18.2031C90.0689 16.2973 88.6567 14.4605 87.1516 12.7V12.7671C85.1764 10.5312 82.9871 8.49125 80.6147 6.67583C78.9089 5.44936 77.5703 4.82719 76.6351 4.82719Z" fill="black"/>
</g>
<defs>
<clipPath id="clip0_5_82">
<rect width="180" height="143" fill="white"/>
</clipPath>
</defs>
</svg>
