<svg width="24" height="24" viewBox="0 0 24 24" fill="none" xmlns="http://www.w3.org/2000/svg">
<path d="M12 3.48C11.92 3.48 11.84 3.49 11.76 3.49L12.58 2.47C12.84 2.15 12.79 1.67 12.46 1.42C12.13 1.17 11.67 1.21 11.41 1.54L9.43998 4C9.42998 4.01 9.42998 4.02 9.41998 4.04C9.38998 4.08 9.36998 4.13 9.34998 4.17C9.32998 4.22 9.30998 4.26 9.29998 4.3C9.28998 4.35 9.28998 4.39 9.28998 4.44C9.28998 4.49 9.28998 4.54 9.28998 4.59C9.28998 4.61 9.28998 4.62 9.28998 4.64C9.29998 4.67 9.31998 4.69 9.32998 4.72C9.34998 4.77 9.36998 4.81 9.38998 4.86C9.41998 4.9 9.44998 4.94 9.48998 4.97C9.50998 5 9.51998 5.03 9.54998 5.05C9.56998 5.06 9.57998 5.07 9.59998 5.08C9.61998 5.1 9.64998 5.11 9.67998 5.12C9.72998 5.15 9.78998 5.17 9.83998 5.18C9.87998 5.2 9.90998 5.2 9.93998 5.2C9.96998 5.2 9.98998 5.21 10.02 5.21C10.05 5.21 10.07 5.2 10.09 5.19C10.12 5.19 10.15 5.2 10.18 5.19C10.82 5.04 11.42 4.97 11.99 4.97C16.48 4.97 20.13 8.62 20.13 13.11C20.13 17.6 16.48 21.25 11.99 21.25C7.49998 21.25 3.84998 17.6 3.84998 13.11C3.84998 11.37 4.41998 9.69 5.49998 8.25C5.74998 7.92 5.67998 7.45 5.34998 7.2C5.01998 6.95 4.54998 7.02 4.29998 7.35C3.01998 9.05 2.34998 11.04 2.34998 13.11C2.34998 18.42 6.66997 22.75 11.99 22.75C17.31 22.75 21.63 18.43 21.63 13.11C21.63 7.79 17.31 3.48 12 3.48Z" fill="#292D32"/>
<path d="M11.2871 11.7432C11.2871 12.0654 11.222 12.3454 11.0918 12.583C10.9616 12.8206 10.7826 13.016 10.5547 13.1689C10.3301 13.3187 10.0697 13.4261 9.77344 13.4912V13.5254C10.3431 13.597 10.7728 13.776 11.0625 14.0625C11.3555 14.349 11.502 14.7282 11.502 15.2002C11.502 15.6136 11.4027 15.9831 11.2041 16.3086C11.0055 16.6309 10.7012 16.8848 10.291 17.0703C9.88086 17.2559 9.35352 17.3486 8.70898 17.3486C8.32161 17.3486 7.96191 17.3177 7.62988 17.2559C7.30111 17.194 6.98861 17.0947 6.69238 16.958V15.9375C6.99512 16.0872 7.31738 16.2028 7.65918 16.2842C8.00098 16.3656 8.32487 16.4062 8.63086 16.4062C9.22656 16.4062 9.65137 16.2956 9.90527 16.0742C10.1592 15.8496 10.2861 15.5404 10.2861 15.1465C10.2861 14.8926 10.2194 14.6842 10.0859 14.5215C9.95573 14.3587 9.75228 14.2367 9.47559 14.1553C9.20215 14.0739 8.84896 14.0332 8.41602 14.0332H7.78613V13.1104H8.4209C8.83431 13.1104 9.16634 13.0615 9.41699 12.9639C9.66764 12.863 9.84831 12.7246 9.95898 12.5488C10.0729 12.373 10.1299 12.168 10.1299 11.9336C10.1299 11.6276 10.0306 11.39 9.83203 11.2207C9.63346 11.0482 9.33887 10.9619 8.94824 10.9619C8.70736 10.9619 8.48763 10.9896 8.28906 11.0449C8.09375 11.1003 7.91309 11.1702 7.74707 11.2549C7.58105 11.3395 7.42318 11.4307 7.27344 11.5283L6.72168 10.7324C6.99186 10.5306 7.31413 10.3597 7.68848 10.2197C8.06283 10.0798 8.49902 10.0098 8.99707 10.0098C9.72949 10.0098 10.2943 10.1676 10.6914 10.4834C11.0885 10.7959 11.2871 11.2158 11.2871 11.7432Z" fill="black"/>
<path d="M17.2832 13.6768C17.2832 14.2529 17.2376 14.7689 17.1465 15.2246C17.0586 15.6771 16.9186 16.0612 16.7266 16.377C16.5345 16.6927 16.2839 16.9336 15.9746 17.0996C15.6654 17.2656 15.291 17.3486 14.8516 17.3486C14.3014 17.3486 13.8473 17.2038 13.4893 16.9141C13.1312 16.6211 12.8659 16.2012 12.6934 15.6543C12.5208 15.1042 12.4346 14.445 12.4346 13.6768C12.4346 12.9085 12.5127 12.251 12.6689 11.7041C12.8285 11.154 13.0856 10.7324 13.4404 10.4395C13.7952 10.1465 14.2656 10 14.8516 10C15.4049 10 15.8607 10.1465 16.2188 10.4395C16.5801 10.7292 16.847 11.1491 17.0195 11.6992C17.1953 12.2461 17.2832 12.9053 17.2832 13.6768ZM13.5918 13.6768C13.5918 14.279 13.6309 14.7819 13.709 15.1855C13.7904 15.5892 13.9238 15.8919 14.1094 16.0938C14.2949 16.2923 14.5423 16.3916 14.8516 16.3916C15.1608 16.3916 15.4082 16.2923 15.5938 16.0938C15.7793 15.8952 15.9128 15.5941 15.9941 15.1904C16.0788 14.7868 16.1211 14.2822 16.1211 13.6768C16.1211 13.0778 16.0804 12.5765 15.999 12.1729C15.9176 11.7692 15.7842 11.4665 15.5986 11.2646C15.4131 11.0596 15.1641 10.957 14.8516 10.957C14.5391 10.957 14.29 11.0596 14.1045 11.2646C13.9222 11.4665 13.7904 11.7692 13.709 12.1729C13.6309 12.5765 13.5918 13.0778 13.5918 13.6768Z" fill="black"/>
</svg>
