
<svg width="36" height="40" viewBox="0 0 36 40" fill="none" xmlns="http://www.w3.org/2000/svg">
<path d="M18.1659 4.65642C18.0219 4.65642 17.8779 4.67442 17.7339 4.67442L19.2099 2.83842C19.6779 2.26242 19.5879 1.39842 18.9939 0.948419C18.3999 0.498419 17.5719 0.570419 17.1039 1.16442L13.5579 5.59242C13.5399 5.61042 13.5399 5.62842 13.5219 5.66442C13.4679 5.73642 13.4319 5.82642 13.3959 5.89842C13.3599 5.98842 13.3239 6.06042 13.3059 6.13242C13.2879 6.22242 13.2879 6.29442 13.2879 6.38442C13.2879 6.47442 13.2879 6.56442 13.2879 6.65442C13.2879 6.69042 13.2879 6.70842 13.2879 6.74442C13.3059 6.79842 13.3419 6.83442 13.3599 6.88842C13.3959 6.97842 13.4319 7.05042 13.4679 7.14042C13.5219 7.21242 13.5759 7.28442 13.6479 7.33842C13.6839 7.39242 13.7019 7.44642 13.7559 7.48242C13.7919 7.50042 13.8099 7.51842 13.8459 7.53642C13.8819 7.57242 13.9359 7.59042 13.9899 7.60842C14.0799 7.66242 14.1879 7.69842 14.2779 7.71642C14.3499 7.75242 14.4039 7.75242 14.4579 7.75242C14.5119 7.75242 14.5479 7.77042 14.6019 7.77042C14.6559 7.77042 14.6919 7.75242 14.7279 7.73442C14.7819 7.73442 14.8359 7.75242 14.8899 7.73442C16.0419 7.46442 17.1219 7.33842 18.1479 7.33842C26.2299 7.33842 32.7999 13.9084 32.7999 21.9904C32.7999 30.0724 26.2299 36.6424 18.1479 36.6424C10.0659 36.6424 3.4959 30.0724 3.4959 21.9904C3.4959 18.8584 4.5219 15.8344 6.4659 13.2424C6.9159 12.6484 6.7899 11.8024 6.1959 11.3524C5.6019 10.9024 4.7559 11.0284 4.3059 11.6224C2.0019 14.6824 0.795898 18.2644 0.795898 21.9904C0.795898 31.5484 8.5719 39.3424 18.1479 39.3424C27.7239 39.3424 35.4999 31.5664 35.4999 21.9904C35.4999 12.4144 27.7239 4.65642 18.1659 4.65642Z" fill="#707687"/>
<path d="M25.8755 23.0107C25.8755 24.0479 25.7935 24.9766 25.6294 25.7969C25.4712 26.6113 25.2192 27.3027 24.8735 27.8711C24.5278 28.4395 24.0767 28.873 23.52 29.1719C22.9634 29.4707 22.2896 29.6201 21.4985 29.6201C20.5083 29.6201 19.6909 29.3594 19.0464 28.8379C18.4019 28.3105 17.9243 27.5547 17.6138 26.5703C17.3032 25.5801 17.1479 24.3936 17.1479 23.0107C17.1479 21.6279 17.2886 20.4443 17.5698 19.46C17.8569 18.4697 18.3198 17.7109 18.9585 17.1836C19.5972 16.6562 20.4438 16.3926 21.4985 16.3926C22.4946 16.3926 23.3149 16.6562 23.9595 17.1836C24.6099 17.7051 25.0903 18.4609 25.4009 19.4512C25.7173 20.4355 25.8755 21.6221 25.8755 23.0107ZM19.231 23.0107C19.231 24.0947 19.3013 25 19.4419 25.7266C19.5884 26.4531 19.8286 26.998 20.1626 27.3613C20.4966 27.7187 20.9419 27.8975 21.4985 27.8975C22.0552 27.8975 22.5005 27.7187 22.8345 27.3613C23.1685 27.0039 23.4087 26.4619 23.5552 25.7354C23.7075 25.0088 23.7837 24.1006 23.7837 23.0107C23.7837 21.9326 23.7104 21.0303 23.564 20.3037C23.4175 19.5771 23.1772 19.0322 22.8433 18.6689C22.5093 18.2998 22.061 18.1152 21.4985 18.1152C20.936 18.1152 20.4878 18.2998 20.1538 18.6689C19.8257 19.0322 19.5884 19.5771 19.4419 20.3037C19.3013 21.0303 19.231 21.9326 19.231 23.0107Z" fill="#898D9A"/>
<path d="M14.2968 29.6575H12.1995V21.2951C12.1995 21.0166 12.2025 20.7382 12.2084 20.4597C12.2143 20.1813 12.2202 19.9087 12.2262 19.6421C12.238 19.3755 12.2528 19.1208 12.2706 18.8779C12.1462 19.0141 11.9922 19.1623 11.8085 19.3222C11.6308 19.4822 11.4412 19.6481 11.2397 19.8199L9.74678 21.0107L8.69814 19.6866L12.555 16.6651H14.2968V29.6575Z" fill="#898D9A"/>
</svg>
