<svg width="24" height="24" fill="none" xmlns="http://www.w3.org/2000/svg">
    <path d="M19.69 7.35a.75.75 0 0 0-1.2.9c1.08 1.44 1.65 3.12 1.65 4.86 0 4.49-3.65 8.14-8.14 8.14s-8.14-3.65-8.14-8.14S7.51 4.98 12 4.98c.58 0 1.17.07 1.81.22.03.01.06 0 .09 0s.05.02.07.02c.03 0 .05-.01.08-.01s.06-.01.1-.02c.06-.01.11-.04.16-.06.03-.02.06-.03.09-.05.01-.01.03-.01.04-.02.03-.02.04-.05.06-.07.04-.04.07-.07.1-.12.03-.04.04-.09.06-.14.01-.03.03-.06.04-.09v-.05c.01-.05.01-.1 0-.15 0-.05 0-.09-.01-.14-.01-.04-.03-.08-.05-.13-.02-.05-.04-.1-.07-.14 0-.01 0-.02-.01-.03l-1.98-2.47a.748.748 0 0 0-1.05-.12c-.32.26-.37.73-.12 1.05l.82 1.02c-.08 0-.16-.01-.24-.01-5.31 0-9.64 4.32-9.64 9.64s4.32 9.64 9.64 9.64 9.64-4.32 9.64-9.64c.01-2.07-.67-4.06-1.94-5.76Z" fill="#292D32" />
    <path d="M11.287 11.743c0 .322-.065.602-.195.84s-.31.433-.537.586c-.225.15-.485.257-.782.322v.034c.57.072 1 .251 1.29.537.292.287.439.666.439 1.138 0 .414-.1.783-.298 1.109-.199.322-.503.576-.913.761-.41.186-.937.279-1.582.279-.387 0-.747-.031-1.08-.093a3.985 3.985 0 0 1-.937-.298v-1.02c.303.15.625.265.967.346.342.082.666.122.972.122.596 0 1.02-.11 1.274-.332.254-.224.381-.534.381-.928 0-.253-.067-.462-.2-.625-.13-.162-.334-.284-.61-.366-.274-.081-.627-.122-1.06-.122h-.63v-.923h.635c.413 0 .745-.048.996-.146.25-.101.431-.24.542-.415.114-.176.17-.381.17-.615 0-.306-.098-.544-.297-.713-.199-.173-.493-.26-.884-.26-.24 0-.46.029-.659.084a2.97 2.97 0 0 0-.542.21 5.12 5.12 0 0 0-.474.273l-.551-.796c.27-.201.592-.372.966-.512.375-.14.811-.21 1.31-.21.731 0 1.296.158 1.693.473.397.313.596.733.596 1.26ZM17.283 13.677c0 .576-.045 1.092-.137 1.548a3.482 3.482 0 0 1-.42 1.152 1.951 1.951 0 0 1-.751.723c-.31.166-.684.249-1.123.249-.55 0-1.005-.145-1.363-.435-.358-.293-.623-.713-.796-1.26-.172-.55-.258-1.209-.258-1.977s.078-1.426.234-1.973c.16-.55.417-.972.771-1.265.355-.293.826-.439 1.412-.439.553 0 1.009.146 1.367.44.361.29.628.71.8 1.26.176.546.264 1.205.264 1.977Zm-3.691 0c0 .602.039 1.105.117 1.508.081.404.215.707.4.909.186.198.433.298.743.298.309 0 .556-.1.742-.298.185-.199.319-.5.4-.904.085-.403.127-.908.127-1.513 0-.6-.04-1.1-.122-1.504-.081-.404-.215-.707-.4-.908-.186-.206-.435-.308-.747-.308-.313 0-.562.102-.748.308-.182.201-.314.504-.395.908-.078.403-.117.905-.117 1.504Z" fill="#000" />
</svg>