<svg width="36" height="40" viewBox="0 0 36 40" fill="none" xmlns="http://www.w3.org/2000/svg">
<path d="M31.712 11.6326C31.262 11.0386 30.416 10.9126 29.822 11.3626C29.228 11.8126 29.102 12.6586 29.552 13.2526C31.496 15.8446 32.522 18.8686 32.522 22.0006C32.522 30.0826 25.952 36.6526 17.87 36.6526C9.788 36.6526 3.218 30.0826 3.218 22.0006C3.218 13.9186 9.788 7.36658 17.87 7.36658C18.914 7.36658 19.976 7.49258 21.128 7.76258C21.182 7.78058 21.236 7.76258 21.29 7.76258C21.344 7.76258 21.38 7.79858 21.416 7.79858C21.47 7.79858 21.506 7.78058 21.56 7.78058C21.614 7.78058 21.668 7.76258 21.74 7.74458C21.848 7.72658 21.938 7.67258 22.028 7.63658C22.082 7.60058 22.136 7.58258 22.19 7.54658C22.208 7.52858 22.244 7.52858 22.262 7.51058C22.316 7.47458 22.334 7.42058 22.37 7.38458C22.442 7.31258 22.496 7.25858 22.55 7.16858C22.604 7.09658 22.622 7.00658 22.658 6.91658C22.676 6.86258 22.712 6.80858 22.73 6.75458C22.73 6.71858 22.73 6.70058 22.73 6.66458C22.748 6.57458 22.748 6.48458 22.73 6.39458C22.73 6.30458 22.73 6.23258 22.712 6.14258C22.694 6.07058 22.658 5.99858 22.622 5.90858C22.586 5.81858 22.55 5.72858 22.496 5.65658C22.496 5.63858 22.496 5.62058 22.478 5.60258L18.914 1.15658C18.446 0.580582 17.6 0.472582 17.024 0.940582C16.448 1.40858 16.358 2.25458 16.808 2.83058L18.284 4.66658C18.14 4.66658 17.996 4.64858 17.852 4.64858C8.294 4.64858 0.5 12.4246 0.5 22.0006C0.5 31.5766 8.276 39.3526 17.852 39.3526C27.428 39.3526 35.204 31.5766 35.204 22.0006C35.222 18.2746 33.998 14.6926 31.712 11.6326Z" fill="#707687"/>
<path d="M25.5796 23.001C25.5796 24.0381 25.4976 24.9668 25.3335 25.7871C25.1753 26.6016 24.9233 27.293 24.5776 27.8613C24.2319 28.4297 23.7808 28.8633 23.2241 29.1621C22.6675 29.4609 21.9937 29.6104 21.2026 29.6104C20.2124 29.6104 19.395 29.3496 18.7505 28.8281C18.106 28.3008 17.6284 27.5449 17.3179 26.5605C17.0073 25.5703 16.8521 24.3838 16.8521 23.001C16.8521 21.6182 16.9927 20.4346 17.2739 19.4502C17.561 18.46 18.0239 17.7012 18.6626 17.1738C19.3013 16.6465 20.1479 16.3828 21.2026 16.3828C22.1987 16.3828 23.019 16.6465 23.6636 17.1738C24.314 17.6953 24.7944 18.4512 25.105 19.4414C25.4214 20.4258 25.5796 21.6123 25.5796 23.001ZM18.9351 23.001C18.9351 24.085 19.0054 24.9902 19.146 25.7168C19.2925 26.4434 19.5327 26.9883 19.8667 27.3516C20.2007 27.709 20.646 27.8877 21.2026 27.8877C21.7593 27.8877 22.2046 27.709 22.5386 27.3516C22.8726 26.9941 23.1128 26.4521 23.2593 25.7256C23.4116 24.999 23.4878 24.0908 23.4878 23.001C23.4878 21.9229 23.4146 21.0205 23.2681 20.2939C23.1216 19.5674 22.8813 19.0225 22.5474 18.6592C22.2134 18.29 21.7651 18.1055 21.2026 18.1055C20.6401 18.1055 20.1919 18.29 19.8579 18.6592C19.5298 19.0225 19.2925 19.5674 19.146 20.2939C19.0054 21.0205 18.9351 21.9229 18.9351 23.001Z" fill="#898D9A"/>
<path d="M14.0009 29.6477H11.9036V21.2853C11.9036 21.0069 11.9066 20.7284 11.9125 20.45C11.9184 20.1715 11.9243 19.899 11.9303 19.6324C11.9421 19.3658 11.9569 19.111 11.9747 18.8681C11.8503 19.0044 11.6963 19.1525 11.5126 19.3125C11.3349 19.4724 11.1453 19.6383 10.9438 19.8101L9.45088 21.0009L8.40225 19.6768L12.2591 16.6553H14.0009V29.6477Z" fill="#898D9A"/>
</svg>
