<svg width="24" height="24" viewBox="0 0 24 24" fill="none" xmlns="http://www.w3.org/2000/svg">
<g clip-path="url(#clip0_12_1721)">
<path fill-rule="evenodd" clip-rule="evenodd" d="M12 1.5C6.20101 1.5 1.5 6.20101 1.5 12C1.5 17.799 6.20101 22.5 12 22.5C17.799 22.5 22.5 17.799 22.5 12C22.5 6.20101 17.799 1.5 12 1.5ZM0.5 12C0.5 5.64873 5.64873 0.5 12 0.5C18.3513 0.5 23.5 5.64873 23.5 12C23.5 18.3513 18.3513 23.5 12 23.5C5.64873 23.5 0.5 18.3513 0.5 12Z" fill="#DEDEDE"/>
<path fill-rule="evenodd" clip-rule="evenodd" d="M11 1C11 0.447715 11.4477 0 12 0C14.2542 0 16.4627 0.634909 18.3727 1.832C20.2828 3.02909 21.817 4.73996 22.7997 6.76863C23.7824 8.7973 24.1738 11.0617 23.9291 13.3026C23.6844 15.5434 22.8135 17.67 21.4162 19.4388C21.0738 19.8722 20.445 19.9459 20.0116 19.6036C19.5782 19.2612 19.5044 18.6324 19.8468 18.199C21.0113 16.725 21.737 14.9528 21.9409 13.0855C22.1448 11.2181 21.8186 9.33109 20.9997 7.64053C20.1808 5.94997 18.9023 4.52424 17.3106 3.52667C15.7189 2.52909 13.8785 2 12 2C11.4477 2 11 1.55228 11 1Z" fill="#FA784A"/>
<path d="M8.71875 15H5.44434V14.5249L6.78076 13.168C7.02913 12.9173 7.23763 12.694 7.40625 12.498C7.57715 12.3021 7.70703 12.1095 7.7959 11.9204C7.88477 11.729 7.9292 11.5194 7.9292 11.2915C7.9292 11.009 7.84489 10.7936 7.67627 10.6455C7.50993 10.4951 7.29004 10.4199 7.0166 10.4199C6.77734 10.4199 6.56543 10.4609 6.38086 10.543C6.19629 10.625 6.00716 10.7412 5.81348 10.8916L5.50928 10.5088C5.64144 10.3971 5.78499 10.298 5.93994 10.2114C6.09717 10.1248 6.26465 10.0565 6.44238 10.0063C6.6224 9.95622 6.8138 9.93115 7.0166 9.93115C7.32422 9.93115 7.58968 9.9847 7.81299 10.0918C8.0363 10.1989 8.20833 10.3516 8.3291 10.5498C8.45215 10.748 8.51367 10.9839 8.51367 11.2573C8.51367 11.5216 8.46126 11.7677 8.35645 11.9956C8.25163 12.2212 8.10465 12.4456 7.91553 12.6689C7.7264 12.89 7.50537 13.1247 7.25244 13.373L6.16553 14.4565V14.4805H8.71875V15ZM11.0293 11.9443C11.3688 11.9443 11.6639 12.0024 11.9146 12.1187C12.1652 12.2326 12.3589 12.3989 12.4956 12.6177C12.6346 12.8364 12.7041 13.1019 12.7041 13.4141C12.7041 13.7559 12.63 14.0509 12.4819 14.2993C12.3338 14.5454 12.1208 14.7357 11.8428 14.8701C11.5648 15.0023 11.2321 15.0684 10.8447 15.0684C10.585 15.0684 10.3434 15.0456 10.1201 15C9.89681 14.9544 9.70882 14.8861 9.55615 14.7949V14.2549C9.72249 14.3551 9.92415 14.4349 10.1611 14.4941C10.3981 14.5534 10.6283 14.583 10.8516 14.583C11.1045 14.583 11.3255 14.5431 11.5146 14.4634C11.7061 14.3813 11.8542 14.2583 11.959 14.0942C12.0661 13.9279 12.1196 13.7194 12.1196 13.4688C12.1196 13.1361 12.0171 12.8797 11.812 12.6997C11.6092 12.5174 11.2879 12.4263 10.8481 12.4263C10.7069 12.4263 10.5519 12.4377 10.3833 12.4604C10.2147 12.4832 10.0757 12.5083 9.96631 12.5356L9.6792 12.3477L9.87061 10.0029H12.3555V10.5225H10.356L10.2295 12.0298C10.3161 12.0116 10.4277 11.9933 10.5645 11.9751C10.7012 11.9546 10.8561 11.9443 11.0293 11.9443ZM14.4746 9.93115C14.8164 9.93115 15.075 10.0679 15.2505 10.3413C15.4282 10.6125 15.5171 10.9964 15.5171 11.4932C15.5171 11.9899 15.4316 12.3773 15.2607 12.6553C15.0898 12.931 14.8278 13.0688 14.4746 13.0688C14.1465 13.0688 13.8947 12.931 13.7192 12.6553C13.5461 12.3773 13.4595 11.9899 13.4595 11.4932C13.4595 10.9964 13.5426 10.6125 13.709 10.3413C13.8753 10.0679 14.1305 9.93115 14.4746 9.93115ZM14.4746 10.3379C14.29 10.3379 14.1545 10.4347 14.0679 10.6284C13.9813 10.8198 13.938 11.1081 13.938 11.4932C13.938 11.8783 13.9813 12.1688 14.0679 12.3647C14.1545 12.5607 14.29 12.6587 14.4746 12.6587C14.666 12.6587 14.8084 12.5607 14.9019 12.3647C14.9953 12.1688 15.042 11.8783 15.042 11.4932C15.042 11.1104 14.9953 10.8221 14.9019 10.6284C14.8107 10.4347 14.6683 10.3379 14.4746 10.3379ZM17.6396 10.0029L14.8677 15H14.3687L17.1406 10.0029H17.6396ZM17.5063 11.9341C17.8459 11.9341 18.1045 12.0708 18.2822 12.3442C18.46 12.6154 18.5488 12.9993 18.5488 13.4961C18.5488 13.9906 18.4634 14.3768 18.2925 14.6548C18.1216 14.9305 17.8595 15.0684 17.5063 15.0684C17.1759 15.0684 16.9242 14.9305 16.751 14.6548C16.5778 14.3768 16.4912 13.9906 16.4912 13.4961C16.4912 12.9993 16.5732 12.6154 16.7373 12.3442C16.9036 12.0708 17.16 11.9341 17.5063 11.9341ZM17.5063 12.3442C17.3218 12.3442 17.1862 12.4399 17.0996 12.6313C17.013 12.8228 16.9697 13.111 16.9697 13.4961C16.9697 13.8812 17.013 14.1717 17.0996 14.3677C17.1862 14.5614 17.3218 14.6582 17.5063 14.6582C17.6978 14.6582 17.8402 14.5625 17.9336 14.3711C18.027 14.1774 18.0737 13.8857 18.0737 13.4961C18.0737 13.1133 18.027 12.8262 17.9336 12.6348C17.8424 12.4411 17.7 12.3442 17.5063 12.3442Z" fill="#FA784A"/>
</g>
<defs>
<clipPath id="clip0_12_1721">
<rect width="24" height="24" fill="white"/>
</clipPath>
</defs>
</svg>
