<svg width="24" height="24" viewBox="0 0 24 24" fill="none" xmlns="http://www.w3.org/2000/svg">
<g clip-path="url(#clip0_40_12132)">
<path d="M6.27435 20C5.89465 20 5.58086 19.7178 5.5312 19.3518L5.52435 19.25L5.52495 6.066L1.78142 10.829C1.48916 11.1225 1.01429 11.1235 0.720764 10.8313C0.453924 10.5656 0.428821 10.149 0.646042 9.85489L0.71848 9.77061L5.74248 3.72061C5.781 3.68192 5.8227 3.64832 5.86673 3.61979C5.87998 3.61174 5.89354 3.60354 5.90737 3.59576C5.91923 3.58861 5.93154 3.58215 5.94398 3.57606C5.96209 3.56759 5.9808 3.55932 5.99989 3.55181C6.01461 3.5457 6.02893 3.54061 6.04336 3.53596C6.06125 3.53043 6.08032 3.52506 6.09968 3.52045C6.1132 3.51701 6.12621 3.51429 6.13927 3.51192C6.1587 3.50859 6.1788 3.50575 6.19915 3.50372C6.21467 3.50197 6.23004 3.50092 6.24543 3.50034C6.25477 3.50019 6.26454 3.5 6.27435 3.5L6.3034 3.50038C6.31812 3.50095 6.33283 3.50196 6.3475 3.50339L6.27435 3.5C6.32168 3.5 6.36798 3.50438 6.41288 3.51277C6.4236 3.51471 6.43461 3.51703 6.44557 3.51959C6.46815 3.52492 6.48989 3.53108 6.51121 3.53817C6.5218 3.54165 6.53311 3.5457 6.54434 3.55003C6.56691 3.5588 6.58842 3.56832 6.60938 3.5788C6.61923 3.58367 6.62955 3.58913 6.63976 3.59484C6.65642 3.60421 6.67225 3.61386 6.68768 3.62407C6.6986 3.63128 6.70997 3.63925 6.72115 3.64758L6.7298 3.65407C6.7562 3.67428 6.78121 3.6962 6.80468 3.71967L6.80538 3.72057L11.8304 9.77057C12.1227 10.0641 12.1217 10.5389 11.8282 10.8312C11.5614 11.0969 11.1447 11.1203 10.8515 10.9018L10.7675 10.829L7.02495 6.068L7.02435 19.25C7.02435 19.6642 6.68856 20 6.27435 20Z" fill="black"/>
<path d="M17.7745 3.5C18.1542 3.5 18.468 3.78215 18.5176 4.14823L18.5245 4.25L18.5239 17.434L22.2674 12.671C22.5597 12.3775 23.0345 12.3765 23.3281 12.6687C23.5949 12.9344 23.62 13.351 23.4028 13.6451L23.3303 13.7294L18.3063 19.7794C18.2678 19.8181 18.2261 19.8517 18.1821 19.8802C18.1688 19.8883 18.1553 19.8965 18.1415 19.9042C18.1296 19.9114 18.1173 19.9178 18.1048 19.9239C18.0867 19.9324 18.068 19.9407 18.0489 19.9482C18.0342 19.9543 18.0199 19.9594 18.0055 19.964C17.9876 19.9696 17.9685 19.9749 17.9491 19.9796C17.9356 19.983 17.9226 19.9857 17.9096 19.9881C17.8901 19.9914 17.87 19.9943 17.8497 19.9963C17.8342 19.998 17.8188 19.9991 17.8034 19.9997C17.7941 19.9998 17.7843 20 17.7745 20L17.7454 19.9996C17.7307 19.999 17.716 19.998 17.7013 19.9966L17.7745 20C17.7271 20 17.6808 19.9956 17.6359 19.9872C17.6252 19.9853 17.6142 19.983 17.6033 19.9804C17.5807 19.9751 17.5589 19.9689 17.5376 19.9618C17.527 19.9584 17.5157 19.9543 17.5045 19.95C17.4819 19.9412 17.4604 19.9317 17.4394 19.9212C17.4296 19.9163 17.4193 19.9109 17.4091 19.9052C17.3924 19.8958 17.3766 19.8861 17.3612 19.8759C17.3502 19.8687 17.3389 19.8607 17.3277 19.8524L17.319 19.8459C17.2926 19.8257 17.2676 19.8038 17.2441 19.7803L17.2435 19.7794L12.2185 13.7294C11.9262 13.4359 11.9271 12.9611 12.2206 12.6688C12.4875 12.4031 12.9042 12.3797 13.1973 12.5982L13.2813 12.671L17.0239 17.432L17.0245 4.25C17.0245 3.83579 17.3603 3.5 17.7745 3.5Z" fill="black"/>
</g>
<defs>
<clipPath id="clip0_40_12132">
<rect width="24" height="24" fill="white" transform="translate(24) rotate(90)"/>
</clipPath>
</defs>
</svg>
