<svg width="24" height="24" viewBox="0 0 24 24" fill="none" xmlns="http://www.w3.org/2000/svg">
<path d="M19.1701 23.4979L19.1701 23.4978C18.1088 23.286 17.1134 22.8251 16.2656 22.1534L16.2452 22.1632L16.1976 22.1307C13.4714 20.2681 11.9405 19.1835 11.2593 18.6351C11.2194 18.603 11.1804 18.5715 11.1421 18.5407C10.5631 18.0744 10.1647 17.7536 9.8431 17.5093C9.30676 17.8467 8.74931 18.1495 8.17419 18.4156L8.17044 18.4173L8.17041 18.4172C7.30339 18.7758 6.40417 19.0509 5.48496 19.2388L5.48285 19.2392L5.48285 19.2392C4.78467 19.3664 4.07725 19.4362 3.36769 19.4481L3.36602 19.4481C2.7791 19.4481 2.29829 19.378 1.93097 19.2333C1.56527 19.0893 1.30696 18.8691 1.17542 18.5676C0.944137 18.2105 0.93569 17.7609 1.11936 17.2409C1.30395 16.7182 1.68654 16.1109 2.25822 15.4234L2.25942 15.422L2.25944 15.422C3.19624 14.3377 4.22118 13.3328 5.32377 12.4176C5.87777 11.9064 6.46031 11.4271 7.06859 10.982C6.57987 10.2817 6.18844 9.51812 5.90513 8.71218L5.90186 8.70288L5.90233 8.70276L5.89123 8.65734C5.5394 7.57815 5.26244 6.47598 5.06233 5.35868L5.05617 5.3458L5.04979 5.33247L5.04754 5.31787C4.92796 4.54114 4.91644 3.92674 5.02402 3.47577C5.13268 3.02027 5.36682 2.71991 5.74032 2.60219L5.74136 2.60186L5.74137 2.60186C5.88462 2.55843 6.03359 2.53676 6.18328 2.53756L6.19358 2.53762L6.19353 2.53815C6.99324 2.62489 7.74705 2.95493 8.35319 3.48365C9.28427 4.17599 10.1375 4.96726 10.898 5.84359C11.529 6.52698 12.1015 7.26218 12.6093 8.04141C13.8744 7.57392 15.1643 7.17615 16.4731 6.8499C17.734 6.5049 19.0313 6.31013 20.3379 6.26963C21.0093 6.24028 21.6785 6.3649 22.2943 6.63395L22.326 6.64451L22.3292 6.64559L22.3292 6.64564C22.5234 6.71779 22.6954 6.83934 22.8282 6.99827C22.961 7.15721 23.0501 7.34804 23.0866 7.55193L23.0886 7.56295L23.088 7.56299C23.1016 7.76994 23.0641 7.97706 22.9788 8.16609C22.894 8.35388 22.7647 8.51808 22.602 8.64442C21.697 9.46576 20.6605 10.1292 19.5357 10.607C18.6211 11.0588 17.5174 11.5395 16.2578 12.0339L16.2557 12.0348L16.2557 12.0347C15.9164 12.1589 15.6449 12.2699 15.4214 12.3613C15.4048 12.3681 15.3886 12.3747 15.3725 12.3813C15.3724 12.3813 15.3723 12.3814 15.3722 12.3814L15.2612 12.4275C16.232 14.0613 17.1417 15.6556 17.9666 17.1651C17.9668 17.1655 17.967 17.1659 17.9672 17.1663L17.8795 17.2143C18.6993 18.6197 19.4118 20.0849 20.0111 21.5976L19.1701 23.4979ZM19.1701 23.4979L19.175 23.4987C19.4071 23.5331 19.6438 23.4812 19.8402 23.3528C20.0366 23.2244 20.1791 23.0284 20.2407 22.802L20.2416 22.8022L20.2434 22.7887C20.2959 22.388 20.2505 21.9806 20.1111 21.6014L19.1701 23.4979ZM9.87097 16.2601L9.86904 16.2601C9.83473 16.2608 9.80065 16.2657 9.76753 16.2745C9.65639 16.2864 9.55148 16.332 9.4669 16.4053C8.93996 16.8211 8.35401 17.1561 7.72834 17.3993L7.72831 17.3992L7.72481 17.4007C6.94971 17.7366 6.14052 17.9875 5.3114 18.1491C4.66842 18.2621 4.01771 18.3258 3.365 18.3394C3.02088 18.3393 2.74851 18.3101 2.54604 18.2549C2.35045 18.2016 2.23273 18.1276 2.17206 18.045C2.12218 17.8701 2.15664 17.6305 2.30613 17.3103C2.45845 16.984 2.7231 16.5893 3.1064 16.1203C4.00407 15.0925 4.97929 14.1351 6.02349 13.2566L6.02419 13.256C6.61938 12.7459 7.24546 12.2147 7.81595 11.7656C8.3221 12.226 8.91746 12.578 9.56542 12.7996C10.2728 13.0703 11.0243 13.2074 11.7818 13.2037L11.7824 13.2037C12.5864 13.1947 13.3844 13.0674 14.151 12.8259C15.154 14.4733 16.1014 16.1147 16.9692 17.6987L16.9691 17.6987L16.9713 17.7024C17.7798 19.0398 18.4756 20.4421 19.0515 21.8948V21.8997V21.9203L19.0596 21.9392C19.1193 22.0782 19.1485 22.2279 19.1459 22.3783C18.3023 22.1277 17.5116 21.7238 16.8135 21.1867L16.8137 21.1865L16.8086 21.1831C14.228 19.4361 12.6428 18.319 11.9437 17.7664L11.9435 17.7662C11.8684 17.7072 11.7948 17.6495 11.7228 17.5932C11.5439 17.4531 11.3753 17.3211 11.2202 17.1955L11.2194 17.1948C10.833 16.8887 10.4971 16.6238 10.2175 16.4132C10.2096 16.4013 10.199 16.3882 10.1847 16.3767C10.1679 16.3632 10.1495 16.3545 10.1305 16.3498L10.1145 16.3386C10.0436 16.2875 9.95837 16.26 9.87097 16.2601ZM8.76834 11.1315C9.13142 10.9131 9.63869 10.627 10.3221 10.2589C11.0622 9.88428 11.6393 9.60914 12.1114 9.3966L13.5697 11.8383C12.9833 12.0022 12.3778 12.0885 11.7685 12.095C11.1421 12.0975 10.5204 11.9869 9.93323 11.7686L9.93324 11.7685L9.93098 11.7678C9.51005 11.6226 9.11702 11.4074 8.76834 11.1315ZM13.1885 8.98637C14.4435 8.54714 15.6343 8.18531 16.7312 7.90871L16.7312 7.90872L16.7328 7.90829C17.8666 7.6023 19.0306 7.42229 20.2036 7.37144L20.2025 7.37577L20.3357 7.37058C20.8551 7.35035 21.3733 7.43431 21.8596 7.61747C21.8951 7.64179 21.9294 7.66787 21.9622 7.6956C21.9238 7.76142 21.881 7.82457 21.8339 7.88458C21.0028 8.57853 20.0771 9.15065 19.0848 9.58375H19.069L19.0479 9.59428C18.1051 10.0651 17.0311 10.5396 15.8542 11.0023L15.8282 11.0124C15.5537 11.1188 15.3283 11.2063 15.1058 11.2999C14.9195 11.3784 14.7671 11.4403 14.6432 11.4873L13.1885 8.98637ZM10.2537 6.77496V6.75879C10.7098 7.30852 11.1412 7.87826 11.5468 8.46633C11.0912 8.6566 10.494 8.95719 9.82798 9.29569L9.82767 9.29585C8.94745 9.74714 8.34958 10.0752 7.96368 10.3199C7.53926 9.70585 7.20157 9.03598 6.96029 8.32925L6.96025 8.32915C6.60685 7.29772 6.3354 6.24002 6.14843 5.16588C6.08135 4.69858 6.06114 4.33969 6.08446 4.08716C6.09613 3.96069 6.11829 3.86625 6.14748 3.79987C6.17305 3.74173 6.20136 3.71076 6.22781 3.69481C6.25363 3.69104 6.27969 3.68905 6.3058 3.68884C6.82302 3.77192 7.30649 3.99884 7.70092 4.34375L7.70079 4.34389L7.7057 4.34768C8.56698 5.01146 9.36164 5.75745 10.0785 6.57512L10.2537 6.77496Z" fill="#292D32" stroke="#292D32" stroke-width="0.2"/>
<path d="M14.2815 6.05355L14.2818 6.05355C14.6048 6.05105 14.9262 6.00777 15.2384 5.92474L15.2384 5.92474L15.2394 5.92447C15.9309 5.73284 16.5621 5.36784 17.0731 4.86403L17.0731 4.86409L17.0759 4.86116C17.3508 4.56744 17.539 4.20334 17.6198 3.80921C17.7 3.41754 17.6709 3.0114 17.5358 2.63523C17.4577 2.25304 17.2754 1.89986 17.0089 1.61488C16.7407 1.32805 16.3978 1.12166 16.0189 1.01886L16.0187 1.01883C15.3133 0.828318 14.5655 0.867677 13.8839 1.13119L13.8839 1.13118L13.8828 1.1316C13.219 1.3968 12.6585 1.86906 12.2846 2.47805C12.2676 2.49776 12.2608 2.52068 12.2587 2.53936L12.2526 2.54944C12.0815 2.83225 11.9697 3.14681 11.9237 3.4741C11.8778 3.80099 11.8987 4.13379 11.9849 4.4524C12.0631 4.7695 12.2167 5.06306 12.4326 5.30811C12.6487 5.55345 12.921 5.74291 13.2262 5.86034L13.2263 5.86035C13.563 5.98974 13.9208 6.05525 14.2815 6.05355ZM15.0949 2.01719L15.1949 2.01718V2.01491C15.372 2.02258 15.5476 2.05127 15.7182 2.10048C15.9076 2.15596 16.0781 2.26274 16.2106 2.40903C16.3432 2.55535 16.4327 2.73549 16.4693 2.92953L16.4711 2.93903L16.4747 2.94802C16.5516 3.14115 16.5746 3.35157 16.5412 3.55677C16.5081 3.76053 16.4205 3.95154 16.2878 4.10966C15.9184 4.47465 15.4604 4.73733 14.9588 4.87187L14.9588 4.87183L14.9558 4.87272C14.5297 5.00129 14.0735 4.98889 13.6551 4.83734L13.6551 4.8373L13.6523 4.83639C13.5024 4.78699 13.3679 4.69938 13.2621 4.5822C13.1562 4.46501 13.0828 4.32229 13.0489 4.16809L13.0489 4.16807L13.0481 4.16469C12.9997 3.97614 12.9919 3.77946 13.0252 3.58767C13.0585 3.39588 13.1322 3.21335 13.2413 3.05216L13.2414 3.05224L13.2442 3.04767C13.4853 2.64704 13.851 2.3364 14.2854 2.16322C14.5444 2.06666 14.8185 2.01721 15.0949 2.01719Z" fill="#292D32" stroke="#292D32" stroke-width="0.2"/>
</svg>
