<svg width="22" height="22" viewBox="0 0 22 22" fill="none" xmlns="http://www.w3.org/2000/svg">
<path d="M12.2779 1.38804C11.6083 1.64483 11.0457 2.1211 10.6819 2.73904C10.5099 3.01169 10.3963 3.31703 10.3483 3.6358C10.3003 3.95456 10.3189 4.27982 10.4029 4.59104C10.475 4.88518 10.6172 5.15753 10.8172 5.38492C11.0173 5.61231 11.2693 5.788 11.5519 5.89704C12.186 6.13486 12.8813 6.15456 13.5279 5.95304C14.223 5.76613 14.8553 5.3963 15.3589 4.88204L15.3809 4.87104C15.6319 4.59746 15.8031 4.26032 15.8759 3.89625C15.9487 3.53218 15.9204 3.15511 15.7939 2.80604C15.7173 2.44169 15.5412 2.10574 15.285 1.83561C15.0288 1.56547 14.7027 1.37176 14.3429 1.27604C13.6605 1.08921 12.936 1.12851 12.2779 1.38804Z" fill="#6FB344"/>
<path d="M11.6868 7.14802L11.5528 6.91602C11.1528 7.09502 10.3478 7.48502 9.15282 8.09902C8.34474 8.48597 7.56512 8.92975 6.81982 9.42702C7.07016 9.70441 7.35517 9.94841 7.66782 10.153C8.02997 10.3933 8.41603 10.5953 8.81982 10.756C10.2234 11.2487 11.751 11.2603 13.1618 10.789C13.3518 10.733 13.5528 10.677 13.7538 10.599L11.6868 7.14802Z" fill="#6FB344"/>
<path d="M14.945 10.326C16.1244 9.88823 17.2793 9.38751 18.405 8.82601C21.486 7.32601 22.457 6.28801 21.286 5.74201C20.226 5.24201 18.328 5.34201 15.56 6.02101C14.2488 6.32465 12.9555 6.70089 11.686 7.14801L13.751 10.599C13.551 10.677 13.351 10.733 13.159 10.789L13.17 10.822H13.192L13.27 10.978L13.292 10.967C13.461 10.921 14.008 10.711 14.945 10.326Z" fill="#C3312A"/>
<path d="M13.1939 10.823H13.1719C11.7755 11.2949 10.2609 11.2833 8.87193 10.79C8.46357 10.6316 8.07551 10.4251 7.71593 10.175C7.267 9.96326 6.85507 9.68064 6.49593 9.33801C6.29807 9.456 6.10801 9.5866 5.92693 9.72901L5.79293 9.56101C5.27993 9.95201 4.73293 10.409 4.12993 10.923C3.05463 11.8296 2.0516 12.8186 1.12993 13.881C0.156928 15.031 -0.178072 15.868 0.122928 16.426C0.435928 17.026 1.67393 17.163 3.83993 16.817C4.72068 16.6318 5.58064 16.3588 6.40693 16.002C6.99793 15.7679 7.5597 15.4659 8.08093 15.102C8.1853 15.0754 8.2942 15.0716 8.40017 15.0909C8.50614 15.1102 8.60668 15.1522 8.69493 15.214C9.08593 15.538 9.54293 15.895 10.0679 16.308C10.8046 16.8887 12.4416 18.0383 14.9789 19.757C17.5349 21.476 18.5509 21.521 18.0489 19.857C17.4682 18.3641 16.7624 16.923 15.9389 15.549C15.1239 14.064 14.2539 12.558 13.3389 11.006L13.2829 11.017L13.2719 10.984L13.1939 10.823Z" fill="#21A0DB"/>
<path d="M10.8778 7.13903C10.2875 6.15237 9.59325 5.23178 8.80684 4.39303C8.01589 3.44661 7.11676 2.59615 6.12784 1.85903C5.16784 1.14503 4.44184 0.877026 3.96184 1.05603C3.42684 1.20203 3.25884 1.94903 3.45984 3.28803C3.69228 4.508 4.00156 5.71206 4.38584 6.89303C4.68262 7.86304 5.15999 8.76825 5.79284 9.56103C5.84884 9.61703 5.90484 9.68403 6.00484 9.79503C6.38484 9.53803 6.74184 9.31503 7.08784 9.11403C7.43384 8.91303 8.03684 8.56703 8.91884 8.08703C9.54628 7.72071 10.2013 7.40376 10.8778 7.13903Z" fill="#F8991D"/>
<path d="M12.3849 5.88103C12.0656 5.88253 11.7489 5.82454 11.4509 5.71003C11.1849 5.60769 10.9476 5.44258 10.7592 5.22877C10.5708 5.01495 10.4369 4.75876 10.3689 4.48203C10.2928 4.20161 10.2744 3.90867 10.3148 3.62094C10.3552 3.3332 10.4535 3.05665 10.6039 2.80803L10.6269 2.78503C10.6209 2.76703 10.6199 2.75703 10.6269 2.75303C10.9593 2.2068 11.4601 1.78325 12.0539 1.54603C12.6605 1.3115 13.326 1.27647 13.9539 1.44603C14.2849 1.5358 14.5843 1.71604 14.8185 1.96652C15.0527 2.21699 15.2125 2.52779 15.2799 2.86403C15.4 3.19476 15.4262 3.55228 15.3556 3.89699C15.285 4.2417 15.1203 4.56013 14.8799 4.81703C14.4226 5.26789 13.8578 5.59454 13.2389 5.76603C12.9602 5.84016 12.6733 5.8788 12.3849 5.88103ZM13.1309 2.18103C12.8663 2.18105 12.6038 2.22846 12.3559 2.32103C11.9387 2.48711 11.5875 2.78533 11.3559 3.17003C11.2486 3.32854 11.1762 3.50803 11.1434 3.69662C11.1107 3.88522 11.1183 4.07862 11.1659 4.26403C11.2004 4.42093 11.2751 4.56615 11.3828 4.68538C11.4905 4.80462 11.6273 4.89376 11.7799 4.94403C12.182 5.08966 12.6204 5.10158 13.0299 4.97803C13.5065 4.85021 13.9414 4.60032 14.2919 4.25303C14.4257 4.09481 14.5139 3.9032 14.5472 3.6987C14.5805 3.49421 14.5576 3.2845 14.4809 3.09203C14.4442 2.89754 14.3545 2.71699 14.2216 2.57033C14.0887 2.42367 13.9178 2.31662 13.7279 2.26103C13.5339 2.20502 13.3329 2.17674 13.1309 2.17703V2.18103Z" fill="black"/>
<path d="M17.2678 20.79C16.2906 20.595 15.3751 20.1661 14.5998 19.54L14.5768 19.551C12.0768 17.843 10.6768 16.851 10.0558 16.351C9.43484 15.851 9.02884 15.523 8.70484 15.279C8.20012 15.5999 7.67462 15.8868 7.13184 16.138C6.34245 16.4644 5.52375 16.7149 4.68684 16.886C4.05176 17.0017 3.40828 17.0652 2.76284 17.076C1.69884 17.076 1.05084 16.821 0.835843 16.317C0.445843 15.725 0.775843 14.79 1.81784 13.537C2.6738 12.5463 3.61033 11.6281 4.61784 10.792C5.14573 10.3048 5.70203 9.84935 6.28384 9.42801C5.81639 8.77296 5.44372 8.05521 5.17684 7.29601L5.16584 7.25101C4.84285 6.26079 4.58891 5.24937 4.40584 4.22401L4.39484 4.20101C4.17684 2.78501 4.36084 2.00401 4.96684 1.81301C5.08938 1.77586 5.2168 1.75732 5.34484 1.75801C6.06044 1.83563 6.73489 2.13131 7.27684 2.60501C8.12651 3.2365 8.90508 3.9584 9.59884 4.75801C10.1907 5.39891 10.7261 6.08982 11.1988 6.82301C12.3778 6.38447 13.5803 6.01223 14.8008 5.70801C15.9502 5.39345 17.1328 5.21588 18.3238 5.17901C18.9269 5.15256 19.528 5.26477 20.0808 5.50701L20.1138 5.51801C20.2769 5.5786 20.4213 5.68066 20.5328 5.81411C20.6444 5.94757 20.7192 6.10781 20.7498 6.27901C20.7614 6.45371 20.7297 6.62855 20.6577 6.78812C20.5856 6.94769 20.4755 7.08709 20.3368 7.19401C19.5137 7.9417 18.5705 8.54547 17.5468 8.98001C16.7108 9.39301 15.7008 9.83301 14.5468 10.286C14.2108 10.409 13.9468 10.518 13.7338 10.605L13.5338 10.688C14.4438 12.217 15.2958 13.709 16.0668 15.12C16.8183 16.4083 17.4715 17.7514 18.0208 19.138V19.158C18.1479 19.496 18.1898 19.86 18.1428 20.218C18.0923 20.4039 17.9753 20.5649 17.814 20.6703C17.6528 20.7757 17.4584 20.8183 17.2678 20.79ZM8.72584 14.337C8.7869 14.3369 8.84641 14.3562 8.89584 14.392L8.92884 14.415C8.95184 14.415 8.96284 14.427 8.97384 14.448C9.23184 14.642 9.54384 14.888 9.90484 15.174C10.1048 15.336 10.3298 15.51 10.5688 15.698C11.2128 16.207 12.6688 17.233 15.0338 18.834C15.7127 19.3564 16.4857 19.7431 17.3108 19.973C17.3352 19.7834 17.3083 19.5907 17.2328 19.415V19.393C16.7018 18.0508 16.0596 16.7553 15.3128 15.52C14.5058 14.047 13.6238 12.52 12.6898 10.988C11.9749 11.2209 11.2287 11.3436 10.4768 11.352C9.79332 11.3553 9.11515 11.2315 8.47684 10.987C7.86972 10.7796 7.31396 10.4448 6.84684 10.005C6.30584 10.428 5.70684 10.936 5.13984 11.422C4.17869 12.2307 3.28106 13.1119 2.45484 14.058C1.74684 14.924 1.46184 15.534 1.58484 15.922C1.72684 16.135 2.12284 16.243 2.76284 16.243C3.36646 16.2305 3.96823 16.1716 4.56284 16.067C5.32965 15.9176 6.07801 15.6856 6.79484 15.375C7.37755 15.1486 7.92322 14.8365 8.41384 14.449C8.4793 14.3918 8.56123 14.3568 8.64784 14.349C8.6732 14.3416 8.69943 14.3376 8.72584 14.337ZM10.8158 7.83701C10.3678 8.03701 9.81584 8.29901 9.09684 8.66301C8.39684 9.04001 7.89684 9.32401 7.55684 9.53301C7.90898 9.83237 8.31392 10.0633 8.75084 10.214C9.29951 10.418 9.88048 10.5214 10.4658 10.519C11.0723 10.5126 11.6748 10.421 12.2558 10.247L10.8158 7.83601V7.83701ZM18.3158 6.00101C17.1924 6.04036 16.0771 6.20812 14.9918 6.50101C13.9528 6.76301 12.8228 7.10801 11.6318 7.52801L13.0598 9.98302C13.1868 9.93702 13.3508 9.87101 13.5598 9.78301C13.7688 9.69501 13.9808 9.61301 14.2438 9.51101C15.3248 9.08601 16.3118 8.65001 17.1788 8.21701H17.1908C18.118 7.81436 18.9825 7.28057 19.7578 6.63201C19.8215 6.55181 19.8774 6.46576 19.9248 6.37501C19.873 6.32573 19.8172 6.2809 19.7578 6.24101C19.2976 6.06612 18.8068 5.98585 18.3148 6.00501L18.3158 6.00101ZM5.46484 2.63001C5.42865 2.62983 5.39251 2.63284 5.35684 2.63901C5.14384 2.73901 5.09884 3.22701 5.22284 4.09001C5.39507 5.07985 5.64518 6.05455 5.97084 7.00501C6.20431 7.68884 6.53504 8.33547 6.95284 8.92501C7.29784 8.69901 7.86184 8.38701 8.72784 7.94301C9.39284 7.60501 9.97784 7.31101 10.4018 7.14301C9.96248 6.49889 9.48949 5.87837 8.98484 5.28401V5.30701C8.32384 4.55302 7.59106 3.86511 6.79684 3.25301C6.42047 2.9239 5.95871 2.70792 5.46484 2.63001Z" fill="black"/>
</svg>
